<svg width="25" height="22" viewBox="0 0 25 22" fill="none" xmlns="http://www.w3.org/2000/svg">
	<path d="M20.75 9.5H15.25C14.836 9.5 14.5 9.164 14.5 8.75C14.5 8.336 14.836 8 15.25 8H20.75C21.164 8 21.5 8.336 21.5 8.75C21.5 9.164 21.164 9.5 20.75 9.5Z" fill="#323B4B"/>
	<path d="M20.75 13.5H15.25C14.836 13.5 14.5 13.164 14.5 12.75C14.5 12.336 14.836 12 15.25 12H20.75C21.164 12 21.5 12.336 21.5 12.75C21.5 13.164 21.164 13.5 20.75 13.5Z" fill="#323B4B"/>
	<path d="M20.75 17.5H15.25C14.836 17.5 14.5 17.164 14.5 16.75C14.5 16.336 14.836 16 15.25 16H20.75C21.164 16 21.5 16.336 21.5 16.75C21.5 17.164 21.164 17.5 20.75 17.5Z" fill="#323B4B"/>
	<path d="M9.75 12H5.25C4.285 12 3.5 11.215 3.5 10.25V8.74999C3.5 7.785 4.285 7 5.25 7H9.75C10.715 7 11.5 7.785 11.5 8.74999V10.25C11.5 11.215 10.715 12 9.75 12ZM5.25 8.5C5.112 8.5 5 8.612 5 8.74999V10.25C5 10.388 5.112 10.5 5.25 10.5H9.75C9.888 10.5 10 10.388 10 10.25V8.74999C10 8.612 9.888 8.5 9.75 8.5H5.25Z" fill="#323B4B"/>
	<path d="M9.75 19H5.25C4.285 19 3.5 18.215 3.5 17.25V15.75C3.5 14.785 4.285 14 5.25 14H9.75C10.715 14 11.5 14.785 11.5 15.75V17.25C11.5 18.215 10.715 19 9.75 19ZM5.25 15.5C5.112 15.5 5 15.612 5 15.75V17.25C5 17.388 5.112 17.5 5.25 17.5H9.75C9.888 17.5 10 17.388 10 17.25V15.75C10 15.612 9.888 15.5 9.75 15.5H5.25Z" fill="#323B4B"/>
	<path d="M21.75 22H3.25C1.733 22 0.5 20.767 0.5 19.25V2.75C0.5 1.233 1.733 0 3.25 0H21.75C23.267 0 24.5 1.233 24.5 2.75V19.25C24.5 20.767 23.267 22 21.75 22ZM3.25 1.5C2.561 1.5 2 2.061 2 2.75V19.25C2 19.939 2.561 20.5 3.25 20.5H21.75C22.439 20.5 23 19.939 23 19.25V2.75C23 2.061 22.439 1.5 21.75 1.5H3.25Z" fill="#323B4B"/>
	<path d="M23.75 5H1.25C0.836 5 0.5 4.664 0.5 4.25C0.5 3.836 0.836 3.5 1.25 3.5H23.75C24.164 3.5 24.5 3.836 24.5 4.25C24.5 4.664 24.164 5 23.75 5Z" fill="#323B4B"/>
</svg>
