<svg width="23" height="22" viewBox="0 0 23 22" fill="none" xmlns="http://www.w3.org/2000/svg">
	<path d="M1.23334 9.74317H9.50947C9.91445 9.74317 10.2428 9.41518 10.2428 9.00983V0.733336C10.2428 0.327992 9.91445 0 9.50947 0H1.23334C0.82835 0 0.5 0.327992 0.5 0.733336V9.00983C0.5 9.41517 0.82835 9.74317 1.23334 9.74317ZM1.96666 1.46666H8.77614V8.2765H1.96666V1.46666Z" fill="#323B4B"/>
	<path d="M21.7666 0H13.4904C13.0854 0 12.7571 0.327992 12.7571 0.733336V9.00983C12.7571 9.41517 13.0854 9.74317 13.4904 9.74317H21.7666C22.1715 9.74317 22.4999 9.41517 22.4999 9.00983V0.733336C22.4999 0.327992 22.1715 0 21.7666 0V0ZM21.0332 8.2765H14.2238V1.46666H21.0332V8.2765Z" fill="#323B4B"/>
	<path d="M1.23334 22H9.50947C9.91445 22 10.2428 21.672 10.2428 21.2667V12.9902C10.2428 12.5848 9.91446 12.2568 9.50947 12.2568H1.23334C0.82835 12.2568 0.5 12.5848 0.5 12.9902V21.2667C0.5 21.672 0.82835 22 1.23334 22ZM1.96666 13.7235H8.77614V20.5333H1.96666V13.7235Z" fill="#323B4B"/>
	<path d="M21.7666 12.2568H13.4904C13.0854 12.2568 12.7571 12.5848 12.7571 12.9902V21.2667C12.7571 21.672 13.0854 22 13.4904 22H21.7666C22.1715 22 22.4999 21.672 22.4999 21.2667V12.9902C22.4999 12.5848 22.1715 12.2568 21.7666 12.2568ZM21.0332 20.5333H14.2238V13.7235H21.0332V20.5333Z" fill="#323B4B"/>
</svg>