<svg width="23" height="19" viewBox="0 0 23 19" fill="none" xmlns="http://www.w3.org/2000/svg">
    <path d="M19.8042 0C18.3179 0 17.1085 1.20932 17.1085 2.69575C17.1085 3.51529 17.4765 4.25002 18.0556 4.74488L15.5225 9.55758C15.2991 9.49748 15.0647 9.46491 14.8226 9.46491C14.2441 9.46491 13.708 9.64871 13.2685 9.96005L11.3408 8.2213C11.5611 7.83084 11.6876 7.38056 11.6876 6.9012C11.6876 5.41472 10.4782 4.20544 8.99173 4.20544C7.50537 4.20544 6.29598 5.41476 6.29598 6.9012C6.29598 7.61875 6.57832 8.27112 7.03708 8.75466L4.16551 13.0437C3.86434 12.9271 3.53754 12.8625 3.19571 12.8625C1.70928 12.8625 0.5 14.0718 0.5 15.5583C0.5 17.0447 1.70928 18.254 3.19575 18.254C4.68211 18.254 5.8915 17.0447 5.8915 15.5583C5.8915 14.8407 5.60917 14.1883 5.1504 13.7047L8.02198 9.4157C8.32314 9.53224 8.64994 9.59688 8.99177 9.59688C9.57035 9.59688 10.1064 9.41307 10.546 9.1017L12.4736 10.8404C12.2533 11.2309 12.1268 11.6812 12.1268 12.1606C12.1268 13.647 13.3362 14.8563 14.8226 14.8563C16.3091 14.8563 17.5184 13.647 17.5184 12.1606C17.5184 11.341 17.1503 10.6063 16.5713 10.1115L19.1043 5.29879C19.3277 5.3589 19.5622 5.3915 19.8043 5.3915C21.2907 5.3915 22.5 4.18219 22.5 2.69575C22.5 1.20932 21.2907 0 19.8042 0ZM3.19575 17.0679C2.36331 17.0679 1.68609 16.3907 1.68609 15.5583C1.68609 14.7258 2.36331 14.0486 3.19575 14.0486C4.02819 14.0486 4.70541 14.7258 4.70541 15.5583C4.70541 16.3907 4.02819 17.0679 3.19575 17.0679ZM8.99173 8.41082C8.1593 8.41082 7.48208 7.7336 7.48208 6.90123C7.48208 6.06879 8.1593 5.39157 8.99173 5.39157C9.82417 5.39157 10.5015 6.06879 10.5015 6.90123C10.5015 7.7336 9.82417 8.41082 8.99173 8.41082ZM13.313 12.1606C13.313 11.3283 13.9902 10.651 14.8226 10.651C15.6551 10.651 16.3324 11.3283 16.3324 12.1606C16.3324 12.993 15.6551 13.6702 14.8226 13.6702C13.9902 13.6702 13.313 12.993 13.313 12.1606ZM19.8042 4.20541C18.9718 4.20541 18.2946 3.52819 18.2946 2.69575C18.2946 1.86331 18.9718 1.18609 19.8042 1.18609C20.6367 1.18609 21.3139 1.86331 21.3139 2.69575C21.3139 3.52823 20.6367 4.20541 19.8042 4.20541Z" fill="#323B4B"/>
</svg>