<svg width="25" height="24" viewBox="0 0 25 24" fill="none" xmlns="http://www.w3.org/2000/svg">
    <path d="M23.9723 12.2704L18.8281 10.5556V2.57807C18.8281 2.27544 18.6344 2.00675 18.3473 1.91104L12.7223 0.0360352C12.578 -0.0120586 12.422 -0.0119648 12.2776 0.0360352L6.65263 1.91104C6.36552 2.00671 6.17188 2.27539 6.17188 2.57807V10.5556L1.02762 12.2704C0.740516 12.3661 0.546875 12.6348 0.546875 12.9374V21.4218C0.546875 21.7244 0.740516 21.9931 1.02762 22.0888L6.65263 23.9638C6.72481 23.9879 6.79991 23.9999 6.875 23.9999C6.95009 23.9999 7.02519 23.9879 7.09737 23.9638L12.5 22.163L17.9027 23.9638C17.9748 23.9879 18.05 23.9999 18.125 23.9999C18.2 23.9999 18.2752 23.9879 18.3473 23.9638L23.9723 22.0888C24.2594 21.9931 24.4531 21.7244 24.4531 21.4218V12.9374C24.4531 12.6348 24.2594 12.3661 23.9723 12.2704ZM18.125 14.0713L14.7235 12.9374L18.125 11.8036L21.5265 12.9374L18.125 14.0713ZM6.875 11.8036L10.2765 12.9374L6.875 14.0713L3.47347 12.9374L6.875 11.8036ZM11.7969 4.95983V11.9619L7.57812 10.5556V3.55358L11.7969 4.95983ZM17.4219 10.5556L13.2031 11.9619V4.95983L17.4219 3.55358V10.5556ZM7.57812 15.3192L11.7969 13.913V20.915L7.57812 22.3213V15.3192ZM12.5 1.44421L15.9015 2.57807L12.5 3.71188L9.09847 2.57807L12.5 1.44421ZM1.95312 13.913L6.17188 15.3192V22.3213L1.95312 20.915V13.913ZM13.2031 13.913L17.4219 15.3192V22.3213L13.2031 20.915V13.913ZM18.8281 22.3213V15.3192L23.0469 13.913V20.915L18.8281 22.3213Z" fill="#323B4B"/>
</svg>