<svg width="22" height="22" viewBox="0 0 22 22" fill="none" xmlns="http://www.w3.org/2000/svg">
	<path d="M10.7146 13.9161C10.712 13.9161 10.7095 13.9161 10.707 13.9161C10.2398 13.9119 9.86404 13.5295 9.86827 13.0617L9.87208 12.6383C9.87208 12.6142 9.87335 12.5896 9.87589 12.5655C9.9931 11.3338 10.8102 10.5789 11.4673 9.97219C11.6899 9.76642 11.9007 9.57208 12.0801 9.36928C12.2988 9.12244 12.6162 8.61691 12.2823 8.0068C11.8977 7.30227 10.9583 7.10285 10.2284 7.27009C9.46586 7.44453 9.18488 8.09613 9.08502 8.46872C8.964 8.92048 8.49981 9.18849 8.04831 9.06782C7.59681 8.94673 7.32895 8.48227 7.44955 8.03051C7.7868 6.77006 8.66187 5.89152 9.85007 5.61928C11.4492 5.25389 13.0597 5.90041 13.7667 7.19388C14.3553 8.27099 14.1941 9.53482 13.3457 10.4925C13.11 10.7584 12.8582 10.9913 12.6145 11.2161C12.0073 11.7771 11.6277 12.1522 11.5634 12.6938L11.56 13.0761C11.5566 13.5422 11.1783 13.9161 10.7146 13.9161Z" fill="#AAAAAA"/>
	<path d="M10.7141 16.4542C10.4941 16.4542 10.274 16.3653 10.1175 16.2087C9.95666 16.0522 9.8678 15.8321 9.8678 15.6079C9.8678 15.3878 9.95666 15.1678 10.1175 15.0112C10.4306 14.6981 10.9976 14.6981 11.3107 15.0112C11.4715 15.1678 11.5604 15.3878 11.5604 15.6079C11.5604 15.8321 11.4715 16.0479 11.315 16.2087C11.1542 16.3653 10.9384 16.4542 10.7141 16.4542Z" fill="#AAAAAA"/>
	<path d="M10.9698 22C10.0071 22 9.05292 21.8747 8.13342 21.627C4.17105 20.5605 1.06853 17.2762 0.229422 13.2594C-0.625761 9.16734 0.952584 4.86565 4.25103 2.3003C6.15774 0.817151 8.56249 0 11.0227 0C12.7258 0 14.4172 0.396297 15.9143 1.14528C19.6113 2.99594 22 6.86238 22 10.996C22 14.3687 20.4094 17.6196 17.7452 19.6917C15.8318 21.1803 13.4253 22 10.9698 22ZM11.0231 1.69358C8.9374 1.69358 6.90121 2.38371 5.29028 3.63738C2.49877 5.80855 1.16247 9.44932 1.88647 12.9127C2.59652 16.3104 5.22131 19.0892 8.57349 19.9914C9.34955 20.2001 10.1561 20.3064 10.9698 20.3064H10.9702C13.0513 20.3064 15.0883 19.6133 16.7068 18.3546C18.9618 16.6009 20.3078 13.8501 20.3078 10.996C20.3078 7.49832 18.2864 4.22632 15.1577 2.66019C13.8942 2.02806 12.4648 1.69358 11.0231 1.69358Z" fill="#AAAAAA"/>
</svg>